<?xml version="1.0" standalone="no"?>
<!DOCTYPE svg PUBLIC "-//W3C//DTD SVG 20010904//EN"
 "http://www.w3.org/TR/2001/REC-SVG-20010904/DTD/svg10.dtd">
<svg version="1.0" xmlns="http://www.w3.org/2000/svg"
 width="1067.000000pt" height="1067.000000pt" viewBox="0 0 1067.000000 1067.000000"
 preserveAspectRatio="xMidYMid meet">
<metadata>
Created by potrace 1.14, written by Peter Selinger 2001-2017
</metadata>
<g transform="translate(0.000000,1067.000000) scale(0.100000,-0.100000)"
fill="#000000" stroke="none">
<path d="M5149 8176 c-2 -2 -42 -6 -89 -10 -47 -3 -110 -10 -140 -16 -30 -5
-71 -11 -90 -14 -103 -15 -291 -63 -435 -111 -234 -79 -486 -202 -694 -340
-120 -80 -143 -113 -116 -165 34 -66 80 -65 181 4 376 255 806 414 1274 470
108 13 524 15 575 3 11 -3 49 -8 85 -12 342 -37 753 -183 1083 -383 105 -63
109 -65 146 -54 61 19 82 92 38 136 -45 45 -320 196 -474 260 -231 96 -434
154 -698 201 -109 19 -228 28 -421 31 -122 2 -223 2 -225 0z"/>
<path d="M5197 7874 c-1 -1 -40 -4 -87 -8 -74 -6 -210 -25 -290 -41 -56 -11
-68 -14 -130 -30 -355 -90 -693 -256 -1000 -493 -47 -36 -150 -131 -230 -211
-287 -288 -488 -607 -619 -981 -27 -79 -77 -251 -86 -303 -3 -12 -9 -44 -15
-72 -14 -73 -19 -104 -26 -165 -3 -30 -7 -66 -10 -80 -2 -14 -6 -101 -9 -195
-8 -244 -13 -318 -30 -405 -3 -14 -7 -34 -9 -45 -40 -209 -180 -513 -313 -675
-149 -183 -244 -266 -537 -465 -158 -108 -407 -278 -446 -305 -8 -6 -165 -114
-349 -240 -184 -126 -338 -235 -343 -243 -27 -49 -7 -109 44 -126 37 -13 29
-17 503 227 127 65 347 178 490 251 143 74 319 164 390 201 72 37 229 118 350
180 121 62 292 150 380 195 296 152 366 187 369 184 2 -2 30 -47 62 -99 32
-52 62 -99 66 -105 4 -5 40 -53 80 -105 87 -115 302 -332 418 -422 244 -189
511 -328 801 -417 110 -33 263 -68 340 -76 30 -4 60 -8 67 -11 47 -15 378 -22
517 -11 208 17 540 93 685 158 14 7 34 15 45 20 56 22 220 103 276 135 441
256 763 597 985 1044 41 82 74 152 74 155 0 4 11 34 24 68 22 56 62 178 72
217 19 76 26 107 29 120 2 8 6 26 9 40 13 54 31 179 41 280 8 77 8 352 1 430
-10 98 -29 222 -47 300 -6 25 -12 52 -14 60 -17 82 -86 287 -131 390 -18 41
-32 75 -31 76 3 2 234 122 472 244 110 56 272 140 360 185 88 45 273 140 410
210 138 70 304 156 370 190 66 34 237 122 380 196 495 253 475 239 461 310
-12 64 -64 79 -156 45 -146 -54 -295 -108 -470 -171 -454 -163 -662 -239 -760
-275 -430 -160 -655 -193 -1000 -146 -210 29 -498 140 -657 254 -17 12 -34 22
-38 22 -3 0 -13 7 -21 15 -29 29 -210 143 -321 203 -315 168 -677 278 -1023
308 -73 6 -367 13 -373 8z m368 -178 c22 -3 65 -8 95 -11 73 -9 268 -50 355
-75 39 -12 78 -23 88 -25 44 -10 263 -103 371 -158 65 -33 202 -116 304 -184
198 -133 371 -224 517 -272 99 -32 235 -66 305 -75 25 -4 68 -9 95 -13 92 -12
356 -6 455 11 160 28 200 38 358 92 83 28 152 50 152 48 0 -1 -60 -33 -132
-70 -168 -85 -467 -238 -623 -319 -66 -34 -206 -106 -312 -159 -105 -54 -199
-106 -208 -116 -28 -31 -26 -67 12 -148 61 -134 70 -155 96 -229 43 -118 92
-321 111 -453 24 -165 25 -477 2 -595 -2 -11 -7 -40 -10 -65 -29 -208 -110
-458 -220 -680 -265 -531 -736 -940 -1306 -1134 -102 -34 -268 -77 -360 -91
-25 -4 -52 -9 -60 -10 -129 -24 -494 -24 -625 0 -16 3 -68 12 -115 21 -371 67
-754 249 -1053 502 -68 57 -245 241 -305 315 -73 92 -152 211 -219 331 -70
124 -80 125 -297 12 -183 -95 -404 -209 -751 -386 -132 -68 -264 -136 -294
-152 -30 -15 -56 -27 -58 -25 -2 2 40 32 93 67 52 35 101 68 107 74 7 6 35 29
62 51 249 197 460 503 565 816 76 226 96 358 106 684 6 229 11 274 45 445 109
539 382 1007 809 1386 299 265 761 487 1160 558 19 3 45 8 58 10 23 5 192 24
252 29 55 4 331 -1 375 -7z"/>
<path d="M5209 7296 c-2 -2 -38 -6 -79 -9 -41 -4 -84 -8 -95 -11 -11 -2 -40
-7 -65 -11 -25 -4 -54 -9 -65 -11 -106 -19 -370 -111 -488 -170 -394 -199
-732 -537 -925 -926 -70 -140 -76 -162 -56 -204 19 -40 72 -56 112 -33 28 16
31 20 69 104 50 109 180 327 212 355 4 3 20 23 36 45 104 140 318 325 510 442
94 57 370 176 435 188 3 1 14 4 25 8 11 3 31 9 45 11 139 30 155 33 242 45 62
10 405 7 463 -3 106 -18 234 -48 323 -75 57 -18 113 -29 123 -26 54 18 77 91
42 134 -29 35 -265 105 -423 126 -25 3 -61 8 -80 11 -40 6 -356 15 -361 10z"/>
<path d="M6180 7058 c-11 -12 -20 -24 -21 -27 0 -3 -2 -15 -4 -25 -7 -35 24
-75 78 -102 70 -36 208 -126 283 -185 34 -27 72 -53 85 -58 35 -13 86 11 99
45 20 52 4 81 -83 150 -79 62 -274 188 -330 212 -43 18 -84 15 -107 -10z"/>
<path d="M5247 7014 c-1 -1 -36 -5 -77 -8 -537 -47 -1038 -354 -1343 -823 -15
-24 -27 -45 -27 -47 0 -3 -16 -32 -35 -65 -93 -158 -178 -438 -202 -661 -6
-59 -8 -201 -4 -307 1 -49 32 -90 73 -97 31 -5 9 -16 893 439 88 45 246 126
350 180 105 54 278 142 385 197 107 55 263 135 345 178 83 43 260 134 395 203
135 69 301 155 370 190 100 51 128 71 142 96 26 52 10 80 -95 160 -236 179
-495 289 -809 345 -70 12 -351 28 -361 20z m332 -190 c229 -35 436 -113 635
-241 l69 -44 -69 -36 c-388 -197 -642 -328 -759 -388 -77 -40 -234 -121 -350
-180 -115 -59 -282 -145 -370 -190 -88 -46 -245 -126 -350 -180 -104 -54 -287
-147 -405 -208 -118 -60 -221 -114 -228 -120 -19 -15 -30 7 -27 52 2 20 6 72
10 116 6 81 42 250 71 334 99 293 258 524 510 741 62 54 235 162 335 209 174
82 373 136 544 147 50 4 91 8 93 9 8 7 200 -7 291 -21z"/>
<path d="M7272 6630 c-106 -52 -132 -77 -132 -122 0 -34 37 -76 73 -82 31 -5
210 81 240 116 20 23 22 76 4 99 -14 19 -50 39 -70 39 -8 0 -59 -22 -115 -50z"/>
<path d="M6910 6444 c-69 -32 -89 -53 -92 -99 -2 -30 3 -42 25 -61 16 -13 40
-24 54 -24 35 0 130 47 148 74 22 30 18 71 -7 101 -32 36 -64 39 -128 9z"/>
<path d="M6505 6236 c-77 -39 -275 -141 -440 -225 -165 -85 -354 -182 -420
-216 -66 -34 -223 -115 -350 -180 -449 -230 -520 -267 -537 -284 -10 -9 -20
-32 -22 -51 -3 -27 2 -39 24 -62 50 -49 5 -68 710 295 96 49 229 118 295 152
66 34 262 135 435 223 522 267 522 266 537 296 17 32 10 77 -15 99 -40 36 -70
29 -217 -47z"/>
<path d="M7127 6239 c-27 -7 -87 -37 -362 -179 -71 -37 -242 -125 -380 -195
-137 -70 -322 -165 -410 -210 -88 -45 -245 -126 -350 -180 -104 -54 -257 -132
-340 -175 -82 -43 -262 -135 -400 -205 -137 -70 -308 -158 -380 -195 -148 -77
-500 -258 -815 -419 -118 -60 -221 -119 -228 -130 -35 -52 1 -131 61 -131 16
0 83 27 150 61 67 34 123 57 124 52 2 -5 29 -48 61 -96 122 -184 301 -364 487
-488 194 -131 469 -240 685 -274 25 -4 53 -9 63 -11 135 -25 371 -20 554 11
684 118 1260 654 1419 1320 23 99 25 108 43 235 10 68 7 389 -4 450 -30 169
-63 289 -110 407 l-34 84 119 59 c120 60 150 86 150 128 0 54 -52 96 -103 81z
m-266 -484 c22 -64 44 -138 49 -164 5 -25 12 -56 14 -69 33 -156 34 -372 2
-572 -36 -226 -171 -529 -322 -720 -59 -76 -213 -222 -304 -291 -100 -75 -305
-187 -410 -224 -113 -40 -294 -81 -395 -91 -50 -5 -277 -4 -320 1 -107 13
-156 22 -245 46 -346 90 -660 300 -877 587 -71 94 -111 158 -103 165 3 2 140
73 305 157 165 84 368 188 450 230 83 42 240 123 350 180 110 56 277 142 370
190 293 151 511 263 770 395 138 71 331 170 430 221 99 51 184 89 188 85 5 -5
26 -61 48 -126z"/>
<path d="M6670 5657 c-44 -22 -52 -55 -35 -139 30 -142 37 -305 20 -475 -8
-79 -7 -82 18 -107 35 -34 85 -35 116 -2 17 18 26 46 35 108 12 80 13 327 2
378 -3 13 -8 42 -11 65 -16 108 -36 158 -72 174 -30 14 -42 14 -73 -2z"/>
<path d="M6437 4468 c-14 -12 -53 -56 -86 -97 -73 -88 -80 -123 -30 -165 57
-48 94 -30 189 89 62 78 72 120 39 158 -34 39 -79 45 -112 15z"/>
<path d="M4265 4295 c-17 -16 -25 -35 -25 -57 0 -28 12 -44 78 -108 43 -41
103 -92 134 -114 49 -33 62 -38 93 -32 43 8 76 54 69 94 -7 35 -9 37 -67 81
-29 21 -82 66 -120 100 -78 71 -119 80 -162 36z"/>
<path d="M5886 4019 c-92 -40 -221 -83 -291 -95 -22 -4 -49 -9 -60 -12 -48
-12 -334 -10 -404 3 -84 15 -111 9 -137 -30 -22 -33 -12 -90 21 -111 66 -43
385 -56 576 -23 191 33 440 129 468 182 16 29 9 65 -16 95 -32 36 -62 34 -157
-9z"/>
<path d="M3363 5765 c-21 -15 -38 -53 -48 -110 -2 -16 -7 -40 -9 -52 -3 -11
-7 -43 -11 -70 -4 -26 -9 -59 -12 -73 -9 -46 -10 -364 -1 -405 14 -69 83 -96
134 -51 l28 23 2 199 c2 188 11 272 49 460 5 24 1 37 -20 62 -30 36 -75 43
-112 17z"/>
<path d="M4576 5242 c-11 -2 -47 -19 -80 -37 -61 -32 -341 -176 -676 -347 -96
-49 -185 -101 -197 -114 -47 -51 -11 -134 57 -134 20 0 123 47 293 134 144 74
350 180 457 234 208 107 250 136 250 173 0 55 -54 102 -104 91z"/>
<path d="M3247 4564 c-81 -41 -152 -84 -158 -95 -6 -11 -11 -34 -11 -51 -1
-38 40 -78 79 -78 26 0 293 129 325 157 25 23 32 67 14 101 -32 62 -70 57
-249 -34z"/>
<path d="M3325 7381 c-29 -18 -132 -122 -222 -224 -68 -77 -205 -265 -275
-377 -113 -182 -213 -394 -282 -601 -28 -82 -32 -106 -24 -129 12 -37 27 -48
69 -55 52 -8 81 23 112 120 117 365 347 744 636 1045 97 102 110 119 111 151
0 32 -27 78 -48 80 -4 0 -16 2 -27 4 -12 3 -34 -4 -50 -14z"/>
<path d="M9396 7107 c-133 -70 -166 -97 -160 -134 1 -7 2 -19 3 -26 3 -29 41
-57 79 -57 48 1 291 127 311 162 22 37 7 94 -29 113 -16 8 -37 15 -47 15 -10
0 -80 -33 -157 -73z"/>
<path d="M8845 6824 c-83 -42 -105 -65 -105 -108 0 -43 24 -74 64 -81 26 -5
49 1 113 33 104 53 129 101 81 156 -37 42 -73 42 -153 0z"/>
<path d="M8540 6666 c-173 -84 -509 -262 -527 -279 -50 -45 -14 -137 54 -137
43 0 555 257 591 296 12 14 22 38 22 54 0 35 -36 78 -70 84 -14 2 -45 -6 -70
-18z"/>
<path d="M7845 6036 c-33 -14 -56 -54 -50 -83 2 -10 15 -65 29 -123 14 -58 32
-145 41 -193 8 -49 17 -93 21 -98 8 -13 56 -36 72 -33 6 1 18 2 25 3 7 0 24
11 36 22 21 20 23 28 17 90 -6 72 -47 275 -65 322 -6 15 -8 27 -5 27 17 0 -35
61 -59 70 -17 5 -30 10 -31 10 -1 -1 -15 -7 -31 -14z"/>
<path d="M2492 5890 c-35 -21 -49 -61 -59 -157 -5 -58 -4 -63 22 -87 16 -15
40 -26 56 -26 34 0 78 36 84 70 23 121 25 139 16 163 -18 47 -74 64 -119 37z"/>
<path d="M7938 5375 c-15 -8 -29 -24 -33 -34 -3 -11 -8 -82 -10 -158 -4 -141
-10 -227 -19 -279 -30 -176 -42 -235 -67 -329 -70 -262 -169 -487 -313 -715
-22 -36 -44 -66 -48 -68 -5 -2 -8 -8 -8 -14 0 -15 -140 -193 -217 -277 -76
-83 -83 -95 -76 -131 9 -42 42 -70 82 -70 32 0 45 9 113 80 307 320 573 831
663 1279 40 196 52 302 60 514 4 110 2 144 -10 167 -17 34 -20 36 -60 44 -18
3 -41 0 -57 -9z"/>
<path d="M1358 5245 c-2 -2 -20 -5 -40 -8 -61 -8 -161 -61 -215 -115 -82 -80
-124 -177 -125 -289 -1 -121 41 -223 126 -308 216 -216 574 -135 690 155 25
61 30 194 10 262 -38 128 -148 241 -273 283 -39 13 -165 27 -173 20z m142
-193 c158 -69 197 -272 76 -400 -120 -128 -336 -91 -405 69 -92 213 117 424
329 331z"/>
<path d="M9315 4351 c-231 -66 -384 -266 -383 -503 0 -232 138 -423 359 -499
82 -28 218 -30 304 -5 152 44 278 158 341 307 32 75 44 222 25 309 -36 168
-167 316 -336 380 -80 30 -225 36 -310 11z m235 -167 c95 -28 170 -91 215
-182 29 -57 36 -86 37 -147 4 -202 -162 -367 -363 -360 -337 14 -464 451 -185
642 89 61 193 78 296 47z"/>
<path d="M2680 3658 c-96 -49 -183 -98 -193 -108 -24 -23 -25 -85 -2 -110 10
-11 32 -22 50 -26 28 -5 60 8 212 86 98 50 184 97 191 104 7 7 15 28 18 47 5
28 1 41 -17 63 -43 48 -67 43 -259 -56z"/>
<path d="M3253 3635 c-43 -19 -55 -48 -44 -107 5 -30 227 -263 263 -277 57
-21 118 29 110 91 -2 16 -23 48 -50 75 -26 26 -82 87 -125 134 -81 91 -106
104 -154 84z"/>
<path d="M2025 3322 c-573 -294 -677 -348 -696 -365 -22 -21 -25 -83 -5 -110
8 -10 28 -22 46 -27 30 -9 52 1 269 111 607 311 687 353 703 373 18 21 23 61
12 91 -7 19 -55 45 -81 45 -10 0 -121 -54 -248 -118z"/>
<path d="M6995 3278 c-11 -6 -22 -14 -25 -18 -19 -25 -234 -174 -340 -237
-228 -135 -550 -257 -782 -298 -17 -3 -34 -8 -38 -10 -3 -2 -33 -7 -65 -10
-33 -4 -62 -9 -65 -10 -16 -9 -195 -19 -340 -19 -259 0 -340 9 -655 79 -56 13
-233 73 -325 112 -190 79 -344 167 -567 321 -23 16 -52 28 -65 27 -13 -1 -29
-3 -36 -4 -21 -2 -51 -61 -45 -90 6 -36 31 -60 139 -135 276 -191 593 -332
924 -410 58 -14 123 -27 145 -31 22 -3 47 -7 55 -10 15 -4 62 -10 175 -22 81
-9 423 -8 510 0 109 12 157 18 200 27 22 5 56 12 75 15 233 39 603 176 814
301 198 118 409 271 430 312 36 74 -47 151 -119 110z"/>
</g>
</svg>
